<?xml version='1.0' encoding='iso-8859-1'?>
<!DOCTYPE svg PUBLIC '-//W3C//DTD SVG 1.1//EN' 'http://www.w3.org/Graphics/SVG/1.1/DTD/svg11.dtd'>
<svg version="1.1" xmlns="http://www.w3.org/2000/svg" viewBox="0 0 297 297" xmlns:xlink="http://www.w3.org/1999/xlink" enable-background="new 0 0 297 297">
  <g>
    <path d="M258.395,48.879h-13.298V27.555C245.097,12.361,232.748,0,217.569,0c-11.438,0-30.623,5.475-45.619,13.019   c-9.993,5.027-17.844,10.672-23.45,16.787c-5.606-6.115-13.458-11.762-23.452-16.789C110.05,5.475,90.865,0,79.43,0   C64.252,0,51.903,12.361,51.903,27.555v21.328H38.605c-21.234,0-38.511,17.293-38.511,38.549v43.902   c0,5.111,3.744,9.338,8.636,10.115v116.988C8.731,279.701,26.009,297,47.248,297h202.515c21.233,0,38.507-17.299,38.507-38.563   V141.449c4.892-0.777,8.636-5.004,8.636-10.115V87.432C296.905,66.174,279.629,48.879,258.395,48.879z M181.169,31.344   c14.687-7.387,30.403-10.83,36.4-10.83c3.867,0,7.014,3.158,7.014,7.041v21.324l-64.567,0.002   C162.825,43.086,170.286,36.82,181.169,31.344z M72.417,27.555c0-3.883,3.146-7.041,7.013-7.041   c14.049,0,50.617,13.461,57.636,28.367l-64.648,0.002V27.555z M20.608,87.432c0-9.945,8.073-18.035,17.997-18.035l219.789-0.004   c9.924,0,17.997,8.092,17.997,18.039v33.645H20.608V87.432z M267.756,258.438c0,9.951-8.071,18.049-17.993,18.049H47.248   c-9.928,0-18.004-8.098-18.004-18.049V141.59h238.512V258.438z"/>
    <path d="m143.515,265.791c1.52,0.975 3.252,1.463 4.986,1.463 1.734,0 3.468-0.488 4.986-1.463 6.223-3.994 60.797-39.978 60.797-73.1 0-21.104-16.826-38.271-37.507-38.271-11.27,0-21.395,5.098-28.276,13.152-6.883-8.055-17.008-13.152-28.278-13.152-20.681,0-37.507,17.168-37.507,38.271 4.26326e-14,33.123 54.576,69.108 60.799,73.1zm-23.292-92.908c10.502,0 19.047,8.885 19.047,19.809 0,5.098 4.133,9.23 9.232,9.23 5.099,0 9.231-4.133 9.231-9.23 0-10.924 8.544-19.809 19.045-19.809 10.501,0 19.044,8.885 19.044,19.809 0,16.059-27.221,40.34-47.32,54.234-20.102-13.895-47.322-38.174-47.322-54.234-0.001-10.924 8.542-19.809 19.043-19.809z"/>
  </g>
</svg>
